<svg width="24" height="33" viewBox="0 0 24 33" fill="none" xmlns="http://www.w3.org/2000/svg">
<path d="M0.109681 14.9767C-0.145285 15.6568 0.0538045 16.424 0.607782 16.8939C1.65735 17.9442 3.81587 21.7357 4.88431 24.4074C5.61347 26.2297 7.21449 28.0182 8.42916 29.1982C8.95193 29.7126 9.24541 30.4159 9.2439 31.1495V31.3506C9.2439 32.2618 9.98237 33.0002 10.8935 33.0002H19.6907C20.6018 33.0002 21.3403 32.2618 21.3403 31.3506V29.6615C21.3353 29.5218 21.3884 29.3862 21.487 29.2873C23.5164 27.4315 23.5396 24.3337 23.5396 24.2028V15.4985C23.56 14.3211 22.6723 13.3256 21.5004 13.2118C21.0599 13.1829 20.621 13.2873 20.2406 13.5114V12.6564C20.2452 11.864 19.8208 11.1313 19.1312 10.741C18.4418 10.3506 17.5951 10.3637 16.918 10.7754C16.8476 10.0337 16.4021 9.3798 15.7378 9.04278C15.0734 8.70577 14.2828 8.73219 13.6425 9.11326V8.20263C15.0072 7.42817 15.8478 5.97791 15.842 4.40885C15.842 1.97951 13.8725 0.0102539 11.4432 0.0102539C9.01385 0.0102539 7.0446 1.97951 7.0446 4.40885C7.03881 5.97791 7.87947 7.42817 9.2439 8.20263V17.055C9.2595 17.7041 9.17116 18.3512 8.98214 18.9724C8.92324 19.1558 8.77298 19.2958 8.58572 19.3418C8.40953 19.3864 8.22278 19.3373 8.09089 19.212C7.6615 18.8025 7.27993 18.3454 6.95399 17.8495C5.99982 16.4222 3.59891 13.756 2.09605 13.756C1.25187 13.7384 0.475392 14.2156 0.109681 14.9767ZM8.14425 4.40885C8.14425 2.58684 9.62119 1.1099 11.4432 1.1099C13.2652 1.1099 14.7421 2.58684 14.7421 4.40885C14.7474 5.34968 14.3467 6.24697 13.6425 6.87117V4.40885C13.6425 3.19418 12.6579 2.20955 11.4432 2.20955C10.2285 2.20955 9.2439 3.19418 9.2439 4.40885V6.87117C8.53991 6.24697 8.13896 5.34968 8.14425 4.40885ZM6.03732 18.4599C6.41008 19.0252 6.84601 19.5462 7.33656 20.0131C7.74103 20.3957 8.31313 20.5449 8.85302 20.4085C9.40322 20.2713 9.84494 19.8621 10.0241 19.3242C10.2517 18.5898 10.3597 17.8236 10.3435 17.055V4.40885C10.3435 3.80152 10.8359 3.3092 11.4432 3.3092C12.0505 3.3092 12.5428 3.80152 12.5428 4.40885V15.9553C12.5428 16.2591 12.789 16.5053 13.0928 16.5053C13.3963 16.5053 13.6425 16.2591 13.6425 15.9553V11.007C13.6425 10.3997 14.1351 9.90735 14.7421 9.90735C15.3495 9.90735 15.842 10.3997 15.842 11.007V15.9553C15.842 16.2591 16.0882 16.5053 16.3917 16.5053C16.6955 16.5053 16.9417 16.2591 16.9417 15.9553V12.6564C16.9417 12.049 17.434 11.5567 18.0413 11.5567C18.6487 11.5567 19.141 12.049 19.141 12.6564V16.5053C19.141 16.8088 19.3872 17.055 19.6907 17.055C19.9945 17.055 20.2406 16.8088 20.2406 16.5053V15.4056C20.2399 15.1139 20.3562 14.834 20.5633 14.6286C20.7901 14.4039 21.1024 14.2873 21.4211 14.3087C22.0151 14.3862 22.4545 14.8997 22.4399 15.4985V24.2028C22.4399 24.2297 22.412 26.952 20.7443 28.4763C20.4183 28.7836 20.2356 29.2135 20.2406 29.6615V31.3506C20.2406 31.6544 19.9945 31.9006 19.6907 31.9006H10.8935C10.5897 31.9006 10.3435 31.6544 10.3435 31.3506V31.1495C10.3443 30.1189 9.93027 29.1312 9.19507 28.4091C8.26355 27.5048 6.59759 25.7281 5.90593 23.9984C4.77432 21.1711 2.5355 17.2666 1.38526 16.1164C1.1235 15.8549 1.03591 15.6127 1.12501 15.3973C1.32435 15.052 1.69736 14.8438 2.09605 14.8557C2.84333 14.8557 4.86946 16.7081 6.03732 18.4599Z" fill="white"/>
<path d="M20.7904 23.653C21.0942 23.653 21.3404 23.4068 21.3404 23.103V19.8041C21.3404 19.5006 21.0942 19.2544 20.7904 19.2544C20.4869 19.2544 20.2407 19.5006 20.2407 19.8041V23.103C20.2407 23.4068 20.4869 23.653 20.7904 23.653Z" fill="white"/>
<path d="M20.2408 26.9519C20.3865 26.9519 20.5265 26.894 20.6294 26.7908C21.0477 26.4037 21.3022 25.8711 21.3405 25.3023C21.34 25.0053 21.1008 24.7639 20.8038 24.7604C20.5036 24.7546 20.2536 24.9897 20.2408 25.2897C20.1995 25.5688 20.0621 25.8248 19.8519 26.0133C19.6949 26.1706 19.6478 26.4069 19.7329 26.6123C19.818 26.818 20.0183 26.9519 20.2408 26.9519Z" fill="white"/>
<path d="M11.9931 30.8008H12.5428C12.8466 30.8008 13.0927 30.5547 13.0927 30.2509C13.0927 29.9473 12.8466 29.7012 12.5428 29.7012H11.9931C11.6893 29.7012 11.4431 29.9473 11.4431 30.2509C11.4431 30.5547 11.6893 30.8008 11.9931 30.8008Z" fill="white"/>
<path d="M14.7422 30.8008H18.5911C18.8949 30.8008 19.1411 30.5547 19.1411 30.2509C19.1411 29.9473 18.8949 29.7012 18.5911 29.7012H14.7422C14.4387 29.7012 14.1925 29.9473 14.1925 30.2509C14.1925 30.5547 14.4387 30.8008 14.7422 30.8008Z" fill="white"/>
<path d="M7.04471 9.10371C7.26419 9.10371 7.46252 8.97359 7.54961 8.77223C7.63669 8.57088 7.59592 8.33706 7.44566 8.17723C5.54059 6.16368 5.43714 3.04545 7.20479 0.910077C7.33542 0.759312 7.37418 0.549651 7.30622 0.36214C7.23801 0.174628 7.07365 0.0387132 6.87658 0.00699979C6.6795 -0.0247136 6.48092 0.052808 6.35733 0.209613C4.23707 2.77186 4.35989 6.51303 6.64401 8.93055C6.74796 9.04104 6.89294 9.10371 7.04471 9.10371Z" fill="white"/>
<path d="M16.5749 7.64716C16.7045 7.71361 16.8556 7.72594 16.9942 7.68114C17.1332 7.63634 17.2485 7.53843 17.3149 7.40856C18.517 5.06781 18.2079 2.23575 16.5291 0.209613C16.4058 0.052808 16.2069 -0.0247136 16.0099 0.00699979C15.813 0.0387132 15.6487 0.174628 15.5805 0.36214C15.5123 0.549651 15.551 0.759312 15.6819 0.910077C17.0808 2.59793 17.3383 4.95731 16.3368 6.90718C16.1981 7.17725 16.3049 7.50848 16.5749 7.64716Z" fill="white"/>
</svg>
