<svg width="23" height="23" viewBox="0 0 23 23" fill="none" xmlns="http://www.w3.org/2000/svg">
<path d="M18.1605 14.2479C17.6897 13.7576 17.1217 13.4955 16.5198 13.4955C15.9227 13.4955 15.3499 13.7527 14.8596 14.243L13.3256 15.7721C13.1994 15.7042 13.0732 15.6411 12.9519 15.578C12.7771 15.4906 12.6121 15.4081 12.4713 15.3207C11.0344 14.4081 9.72859 13.2188 8.47618 11.68C7.86939 10.913 7.46163 10.2673 7.16552 9.61202C7.56357 9.24794 7.9325 8.86931 8.29172 8.50523C8.42764 8.36931 8.56356 8.22854 8.69948 8.09262C9.71888 7.07321 9.71888 5.75284 8.69948 4.73344L7.37425 3.40821C7.22377 3.25773 7.06843 3.10239 6.9228 2.94705C6.63154 2.64608 6.32572 2.33541 6.01019 2.04415C5.53932 1.57814 4.97622 1.33057 4.384 1.33057C3.79177 1.33057 3.21896 1.57814 2.73353 2.04415C2.72868 2.049 2.72868 2.049 2.72383 2.05386L1.07336 3.71889C0.452008 4.34024 0.0976437 5.09751 0.0199748 5.97614C-0.0965287 7.3936 0.320942 8.71397 0.641326 9.57804C1.42772 11.6994 2.60247 13.6654 4.35487 15.7721C6.48106 18.3109 9.03928 20.3158 11.9616 21.7284C13.0781 22.2575 14.5683 22.8837 16.2334 22.9905C16.3353 22.9953 16.4421 23.0002 16.5392 23.0002C17.6605 23.0002 18.6023 22.5973 19.3401 21.7963C19.345 21.7866 19.3547 21.7818 19.3595 21.7721C19.612 21.4662 19.9032 21.1895 20.209 20.8934C20.4178 20.6944 20.6314 20.4857 20.8401 20.2672C21.3207 19.7672 21.5731 19.1847 21.5731 18.5876C21.5731 17.9857 21.3158 17.408 20.8255 16.9226L18.1605 14.2479ZM19.8984 19.3595C19.8935 19.3595 19.8935 19.3643 19.8984 19.3595C19.7091 19.5634 19.5149 19.7478 19.3061 19.9517C18.9906 20.2527 18.6702 20.5682 18.3693 20.9226C17.879 21.4468 17.3013 21.6944 16.544 21.6944C16.4712 21.6944 16.3936 21.6944 16.3207 21.6895C14.879 21.5973 13.5392 21.0342 12.5344 20.5536C9.78685 19.2236 7.37425 17.3352 5.36942 14.942C3.7141 12.9469 2.60732 11.1023 1.87432 9.12173C1.42287 7.91301 1.25782 6.97127 1.33064 6.08294C1.37918 5.51498 1.59763 5.04411 2.00053 4.64121L3.65585 2.98589C3.89371 2.76259 4.14614 2.64123 4.39371 2.64123C4.69953 2.64123 4.9471 2.82569 5.10244 2.98103C5.10729 2.98589 5.11214 2.99074 5.117 2.99559C5.41311 3.27229 5.69466 3.55869 5.99078 3.86452C6.14126 4.01985 6.2966 4.17519 6.45193 4.33538L7.77716 5.66061C8.29172 6.17517 8.29172 6.65089 7.77716 7.16545C7.63639 7.30622 7.50046 7.447 7.35969 7.58292C6.95193 8.00039 6.56358 8.38873 6.14126 8.76737C6.13155 8.77708 6.12184 8.78193 6.11699 8.79164C5.69952 9.20911 5.77719 9.61687 5.86456 9.89357C5.86942 9.90813 5.87427 9.92269 5.87913 9.93726C6.22378 10.7722 6.70921 11.5586 7.44707 12.4955L7.45192 12.5003C8.79171 14.1508 10.2043 15.4372 11.7625 16.4226C11.9616 16.5488 12.1655 16.6508 12.3596 16.7479C12.5344 16.8352 12.6994 16.9178 12.8402 17.0051C12.8596 17.0148 12.879 17.0294 12.8985 17.0391C13.0635 17.1216 13.2188 17.1605 13.379 17.1605C13.7819 17.1605 14.0344 16.908 14.1169 16.8255L15.7771 15.1653C15.9421 15.0003 16.2042 14.8013 16.5101 14.8013C16.811 14.8013 17.0586 14.9906 17.2091 15.1556C17.2139 15.1605 17.2139 15.1605 17.2188 15.1653L19.8935 17.8401C20.3935 18.3352 20.3935 18.8449 19.8984 19.3595Z" fill="black"/>
<path d="M12.4131 5.47092C13.6849 5.68451 14.8402 6.28644 15.7625 7.20876C16.6849 8.13108 17.2819 9.2864 17.5004 10.5582C17.5538 10.8786 17.8305 11.1019 18.146 11.1019C18.1848 11.1019 18.2188 11.0971 18.2577 11.0922C18.6169 11.034 18.8547 10.6942 18.7965 10.3349C18.5344 8.79612 17.8062 7.39322 16.6946 6.28159C15.5829 5.16995 14.18 4.4418 12.6412 4.17967C12.282 4.12142 11.9471 4.35928 11.884 4.71365C11.8209 5.06801 12.0539 5.41267 12.4131 5.47092Z" fill="black"/>
<path d="M22.9566 10.1458C22.5245 7.61184 21.3304 5.30604 19.4954 3.47111C17.6605 1.63618 15.3547 0.442024 12.8208 0.00999089C12.4664 -0.0531151 12.1314 0.1896 12.0683 0.543965C12.0101 0.903184 12.2479 1.23813 12.6072 1.30124C14.8693 1.68473 16.9324 2.75753 18.5731 4.39343C20.2139 6.03419 21.2818 8.09727 21.6653 10.3594C21.7187 10.6798 21.9954 10.9031 22.3109 10.9031C22.3498 10.9031 22.3838 10.8982 22.4226 10.8934C22.7769 10.84 23.0197 10.5002 22.9566 10.1458Z" fill="black"/>
</svg>
