<svg width="16" height="10" viewBox="0 0 16 10" fill="none" xmlns="http://www.w3.org/2000/svg">
<path d="M15.2891 7.48994C14.941 7.07284 14.5478 6.70044 14.1676 6.34028C14.0339 6.21368 13.8957 6.08278 13.7626 5.95281C13.7625 5.95278 13.7625 5.95274 13.7625 5.95271C13.5834 5.77806 13.4957 5.65409 13.4866 5.56252C13.4776 5.47252 13.5391 5.33899 13.6806 5.14162C13.8921 4.84474 14.1176 4.54736 14.3357 4.2598C14.5296 4.00417 14.73 3.73983 14.9221 3.47399L14.9653 3.4143C15.3401 2.89548 15.7277 2.35901 15.9353 1.70526C15.9947 1.51782 16.0563 1.24044 15.9077 0.996944C15.7591 0.75338 15.4835 0.681193 15.2893 0.64813C15.1945 0.63188 15.1045 0.630536 15.0208 0.630536L12.5893 0.62838C12.1689 0.62138 11.8773 0.820631 11.7184 1.22076C11.5912 1.54032 11.441 1.91067 11.2669 2.26198C10.934 2.9402 10.5109 3.72136 9.89761 4.37221L9.87036 4.40121C9.82861 4.44577 9.76039 4.51865 9.72536 4.53536C9.65892 4.49361 9.58226 4.25483 9.58576 4.12974C9.58586 4.12664 9.58589 4.12358 9.58589 4.12052L9.58373 1.31104C9.58373 1.29676 9.58273 1.28248 9.58082 1.26832C9.52629 0.867506 9.41998 0.465692 8.7856 0.340504C8.76526 0.336473 8.74457 0.334473 8.72388 0.334473H6.19466C5.71881 0.334473 5.46712 0.55238 5.26534 0.788631C5.20693 0.857506 5.05175 1.04038 5.13081 1.26394C5.21081 1.49016 5.44918 1.53532 5.52743 1.55013C5.80306 1.60245 5.94559 1.75823 5.98972 2.05604C6.07694 2.6347 6.08762 3.25373 6.02341 4.00321C6.0055 4.20443 5.97219 4.35736 5.91844 4.48455C5.90356 4.51977 5.8905 4.54158 5.88137 4.55443C5.86681 4.54855 5.84415 4.5373 5.81278 4.51583C5.61909 4.3833 5.47312 4.17727 5.33197 3.97808C4.76815 3.18205 4.2939 2.30286 3.88193 1.28988C3.71227 0.874787 3.39333 0.642943 2.98446 0.636943C2.20545 0.623974 1.48498 0.624286 0.782605 0.637943C0.451323 0.643693 0.21901 0.747974 0.0920092 0.947944C-0.0351475 1.14829 -0.0304912 1.40373 0.105884 1.70729C1.08076 3.87511 1.96595 5.45212 2.97596 6.82069C3.68712 7.78419 4.40299 8.453 5.22884 8.92551C6.09653 9.42191 7.0751 9.6652 8.21035 9.66516C8.33945 9.66516 8.47079 9.66201 8.60388 9.65567C9.30429 9.62376 9.58926 9.34516 9.62036 8.663C9.63779 8.30247 9.67792 8.01041 9.81714 7.75666C9.85608 7.68563 9.90001 7.638 9.93464 7.62928C9.97145 7.6201 10.0367 7.64263 10.1093 7.68978C10.242 7.77597 10.3563 7.89285 10.4503 7.99544C10.5455 8.09972 10.6418 8.20744 10.735 8.3116C10.9332 8.53338 11.1381 8.76272 11.3529 8.98148C11.8386 9.4766 12.3986 9.70367 13.0178 9.6561L15.243 9.65713C15.2431 9.65713 15.2431 9.65713 15.2431 9.65713C15.2502 9.65713 15.2573 9.65692 15.2643 9.65645C15.521 9.63935 15.7429 9.49726 15.8732 9.26651C16.0301 8.98863 16.0277 8.63666 15.8667 8.32463C15.6987 8.00022 15.4808 7.721 15.2891 7.48994ZM15.3182 8.9531C15.2875 9.00744 15.2496 9.01735 15.2301 9.01973L13.0054 9.01869C13.0053 9.01869 13.0053 9.01869 13.0052 9.01869C12.9964 9.01869 12.9876 9.01904 12.9789 9.01979C12.5406 9.05629 12.1681 8.90222 11.8078 8.53504C11.6035 8.32685 11.4035 8.10319 11.2102 7.88688C11.116 7.78147 11.0186 7.67244 10.9207 7.56531C10.7993 7.43275 10.6493 7.28041 10.4565 7.15522C10.1679 6.96787 9.9287 6.97353 9.77892 7.01128C9.6307 7.04862 9.42001 7.15519 9.25829 7.45031C9.04879 7.83216 9.00257 8.2441 8.98376 8.63326C8.97288 8.87126 8.93264 8.93413 8.91582 8.9501C8.89379 8.97104 8.82017 9.00785 8.57451 9.01907C7.394 9.07457 6.40331 8.86316 5.5454 8.37232C4.79909 7.94531 4.14559 7.33197 3.48886 6.44225C2.50683 5.11165 1.64276 3.57077 0.687293 1.44607C0.652667 1.3691 0.64198 1.32107 0.638886 1.29535C0.663261 1.28735 0.710886 1.27682 0.794387 1.27529C1.48964 1.26182 2.20258 1.26144 2.97455 1.27432C3.08024 1.27588 3.20058 1.3076 3.29171 1.53057C3.72215 2.58898 4.21937 3.51008 4.81187 4.34658C4.96918 4.56861 5.165 4.84499 5.45278 5.0419C5.71637 5.2224 5.93028 5.21377 6.06334 5.17477C6.19647 5.13574 6.38122 5.0273 6.50566 4.73268C6.58594 4.54277 6.63447 4.32893 6.6585 4.05874C6.72716 3.25708 6.71497 2.59058 6.62022 1.96192C6.55344 1.51151 6.32088 1.18613 5.95453 1.01998C6.01959 0.9861 6.09291 0.971975 6.19472 0.971975H8.69088C8.83132 1.00348 8.85913 1.04048 8.86867 1.05313C8.9091 1.10691 8.93223 1.23413 8.94635 1.33354L8.94848 4.11711C8.94285 4.38396 9.07254 4.97577 9.51411 5.13805C9.51773 5.1394 9.52139 5.14065 9.52504 5.14184C9.92704 5.27321 10.193 4.98943 10.3357 4.83696L10.3611 4.8099C11.0329 4.09692 11.4852 3.26386 11.8386 2.54401C12.0228 2.17229 12.1788 1.78779 12.3107 1.45635C12.3767 1.29013 12.4368 1.26276 12.5801 1.26579C12.5821 1.26585 12.584 1.26585 12.586 1.26585L15.0206 1.26801C15.0772 1.26801 15.1363 1.26866 15.1821 1.27651C15.2981 1.29626 15.3459 1.32032 15.3617 1.33029C15.3633 1.34876 15.3629 1.40188 15.3278 1.51276C15.1513 2.06867 14.81 2.54098 14.4487 3.04105L14.4055 3.10083C14.2178 3.36058 14.0196 3.62192 13.8279 3.87471C13.607 4.16599 13.3786 4.46714 13.1621 4.77108C12.6991 5.41699 12.7398 5.84562 13.3176 6.40912C13.4541 6.5424 13.594 6.67497 13.7294 6.80315C14.1132 7.16669 14.4757 7.51003 14.7992 7.89772C14.9686 8.10191 15.1606 8.34713 15.3006 8.61738C15.3736 8.75885 15.3557 8.88666 15.3182 8.9531Z" fill="black"/>
<path d="M2.3243 2.30093C2.27748 2.20831 2.23108 2.11543 2.18511 2.02237C2.10711 1.86459 1.91611 1.79977 1.7582 1.87777C1.60039 1.95574 1.53564 2.14687 1.6136 2.30468C1.66045 2.39949 1.70773 2.49412 1.75539 2.58846C1.81148 2.69946 1.9237 2.76346 2.04008 2.76346C2.08839 2.76346 2.13748 2.75243 2.18358 2.72915C2.34073 2.64971 2.4037 2.45803 2.3243 2.30093Z" fill="black"/>
<path d="M4.3236 5.6076C3.80098 4.8995 3.31204 4.13041 2.82891 3.25637C2.74375 3.10231 2.54982 3.0465 2.39578 3.13162C2.24175 3.21678 2.18588 3.41072 2.27103 3.56475C2.76779 4.46338 3.27144 5.25544 3.81076 5.98617C3.87326 6.07085 3.96973 6.11563 4.06745 6.11563C4.1332 6.11563 4.19951 6.09538 4.25645 6.05329C4.39804 5.94879 4.4281 5.74926 4.3236 5.6076Z" fill="black"/>
</svg>
