<svg width="14" height="12" viewBox="0 0 14 12" fill="none" xmlns="http://www.w3.org/2000/svg">
<path d="M0.241613 5.82705L3.66529 7.49825C3.79771 7.56224 3.95405 7.55767 4.08064 7.48511L7.12806 5.74992L5.28351 7.35084C5.18959 7.43255 5.13592 7.5491 5.13592 7.67194V11.5714C5.13592 11.9828 5.67202 12.1559 5.92344 11.8291L7.4034 9.90192L11.0633 11.9434C11.32 12.0879 11.649 11.9428 11.7085 11.6554L13.9912 0.514061C14.0594 0.179249 13.7193 -0.0938563 13.4032 0.0306981L0.27778 5.0443C-0.0745629 5.17914 -0.0973136 5.66193 0.241613 5.82705ZM12.9761 1.11398L10.97 10.9052L7.50199 8.97062C7.31298 8.86492 7.06973 8.91177 6.93555 9.08546L6.01094 10.2893V7.86449L10.9992 3.53593C11.3941 3.1937 10.9403 2.58521 10.4893 2.8446L3.84497 6.62808L1.51623 5.49167L12.9761 1.11398Z" fill="black"/>
</svg>
