<svg width="54" height="57" viewBox="0 0 54 57" fill="none" xmlns="http://www.w3.org/2000/svg">
	<path
		d="M20.3314 4.6709C20.7926 4.6709 21.1664 4.29707 21.1664 3.83594C21.1664 3.3748 20.7926 3.00098 20.3314 3.00098C19.8703 3.00098 19.4965 3.3748 19.4965 3.83594C19.4965 4.29707 19.8703 4.6709 20.3314 4.6709Z"
		fill="#8ED74F" />
	<path
		d="M16.8372 27.483H22.3653C22.6632 28.6966 23.7603 29.5994 25.0644 29.5994C26.3685 29.5994 27.4656 28.6964 27.7636 27.483H30.2085C30.6698 27.483 31.0435 27.1091 31.0435 26.648V23.3699C31.0435 22.3364 30.2359 21.47 29.205 21.3976L24.5674 21.071L23.7509 19.1384H23.751C23.3378 18.1606 22.3849 17.5288 21.3234 17.5288C19.6303 17.5288 17.2705 17.5288 15.4377 17.5288C14.3704 17.5288 13.4155 18.1654 13.005 19.1506L12.193 21.0998L9.97481 21.3779C9.10879 21.4865 8.45563 22.2267 8.45563 23.0995V26.648C8.45563 27.1091 8.82936 27.483 9.29059 27.483H11.4388C11.7367 28.6966 12.8338 29.5994 14.1379 29.5994C15.442 29.5994 16.5393 28.6964 16.8372 27.483ZM25.0645 27.9295C24.453 27.9295 23.9555 27.432 23.9555 26.8205C23.9555 26.2099 24.459 25.7114 25.0645 25.7114C25.669 25.7114 26.1736 26.2086 26.1736 26.8205C26.1736 27.432 25.6761 27.9295 25.0645 27.9295ZM22.2128 19.7883L22.7388 21.033H18.4704V19.1986H21.3236C21.7123 19.1986 22.0615 19.4301 22.2128 19.7883ZM14.5466 19.7928C14.697 19.4318 15.0468 19.1986 15.4378 19.1986H16.8003V21.033H14.0299L14.5466 19.7928ZM10.1257 23.0995C10.1257 23.0667 10.1503 23.0389 10.1828 23.0348L12.8297 22.7029H23.9685L29.0879 23.0633C29.2481 23.0745 29.3736 23.2092 29.3736 23.3697V25.8129H27.657C27.2551 24.7642 26.2463 24.0414 25.0644 24.0414C23.8826 24.0414 22.8737 24.7642 22.4718 25.8129H16.7307C16.3286 24.7642 15.3199 24.0414 14.138 24.0414C12.9562 24.0414 11.9473 24.7642 11.5454 25.8129H10.1257V23.0995ZM14.138 27.9295C13.5265 27.9295 13.029 27.432 13.029 26.8205C13.029 26.2099 13.5325 25.7114 14.138 25.7114C14.7414 25.7114 15.2471 26.2077 15.2471 26.8205C15.2471 27.432 14.7496 27.9295 14.138 27.9295Z"
		fill="#8ED74F" />
	<path
		d="M32.0141 17.8884L30.2859 14.8952C30.0269 14.4462 29.5626 14.1782 29.0442 14.1782C28.5258 14.1782 28.0616 14.4463 27.8025 14.8952L26.0744 17.8884C25.8152 18.3373 25.8151 18.8734 26.0743 19.3223C26.3334 19.7713 26.7977 20.0393 27.316 20.0393H30.7725C31.2909 20.0393 31.7551 19.7712 32.0143 19.3223C32.2735 18.8735 32.2732 18.3372 32.0141 17.8884ZM27.7247 18.3693L29.0442 16.0842L30.3635 18.3693H27.7247Z"
		fill="#8ED74F" />
	<path
		d="M13.7006 30.7124H10.0465C9.58528 30.7124 9.21155 31.0862 9.21155 31.5474V35.2014C9.21155 35.6625 9.58528 36.0363 10.0465 36.0363H13.7005C14.1617 36.0363 14.5355 35.6625 14.5355 35.2014V31.5474C14.5356 31.0862 14.1617 30.7124 13.7006 30.7124ZM12.8657 34.3664H10.8815V32.3823H12.8656V34.3664H12.8657Z"
		fill="#8ED74F" />
	<path
		d="M13.7006 37.1499H10.0465C9.58528 37.1499 9.21155 37.5237 9.21155 37.9849V41.6389C9.21155 42.1 9.58528 42.4738 10.0465 42.4738H13.7005C14.1617 42.4738 14.5355 42.1 14.5355 41.6389V37.9849C14.5356 37.5237 14.1617 37.1499 13.7006 37.1499ZM12.8657 40.8039H10.8815V38.8198H12.8656V40.8039H12.8657Z"
		fill="#8ED74F" />
	<path
		d="M13.7006 43.5869H10.0465C9.58528 43.5869 9.21155 43.9608 9.21155 44.4219V48.0759C9.21155 48.537 9.58528 48.9108 10.0465 48.9108H13.7005C14.1617 48.9108 14.5355 48.537 14.5355 48.0759V44.4219C14.5356 43.9606 14.1617 43.5869 13.7006 43.5869ZM12.8657 47.2408H10.8815V45.2567H12.8656V47.2408H12.8657Z"
		fill="#8ED74F" />
	<path
		d="M30.6162 30.7124H16.4838C16.0226 30.7124 15.6489 31.0862 15.6489 31.5474C15.6489 32.0085 16.0226 32.3823 16.4838 32.3823H30.6162C31.0775 32.3823 31.4512 32.0085 31.4512 31.5474C31.4512 31.0862 31.0774 30.7124 30.6162 30.7124Z"
		fill="#8ED74F" />
	<path
		d="M16.4838 35.1655H26.3289C26.7901 35.1655 27.1638 34.7917 27.1638 34.3306C27.1638 33.8694 26.7901 33.4956 26.3289 33.4956H16.4838C16.0226 33.4956 15.6489 33.8694 15.6489 34.3306C15.6489 34.7917 16.0226 35.1655 16.4838 35.1655Z"
		fill="#8ED74F" />
	<path
		d="M30.6162 37.1499H16.4838C16.0226 37.1499 15.6489 37.5237 15.6489 37.9849C15.6489 38.446 16.0226 38.8198 16.4838 38.8198H30.6162C31.0775 38.8198 31.4512 38.446 31.4512 37.9849C31.4512 37.5237 31.0774 37.1499 30.6162 37.1499Z"
		fill="#8ED74F" />
	<path
		d="M21.2647 39.9331H16.4838C16.0226 39.9331 15.6489 40.3069 15.6489 40.7681C15.6489 41.2292 16.0226 41.603 16.4838 41.603H21.2647C21.7259 41.603 22.0996 41.2292 22.0996 40.7681C22.0996 40.3069 21.7258 39.9331 21.2647 39.9331Z"
		fill="#8ED74F" />
	<path
		d="M52.2699 22.6801C51.241 21.6512 49.5754 21.6509 48.5462 22.6801L46.453 24.7732C46.2662 24.6335 46.0404 24.558 45.8029 24.558C45.5122 24.558 45.2388 24.6713 45.0329 24.8769C44.177 25.7328 41.5085 28.4013 40.6628 29.2471V7.11118C40.6628 6.16601 39.8938 5.39696 38.9486 5.39696H31.1481V5.10283C31.1481 4.03575 30.28 3.16761 29.2128 3.16761H24.2467C23.8579 1.34651 22.2139 0 20.3314 0C18.4487 0 16.8046 1.34662 16.4162 3.16772H11.45C10.3829 3.16772 9.51475 4.03586 9.51475 5.10294V5.39707H1.71423C0.769053 5.39707 0 6.16612 0 7.11129V55.2858C0 56.2309 0.769053 57 1.71423 57H38.9486C39.8938 57 40.6628 56.2309 40.6628 55.2858V39.3273L41.9882 38.0018C42.3143 37.6757 42.3143 37.147 41.9882 36.821C41.662 36.495 41.1334 36.495 40.8074 36.821C40.279 37.3494 36.392 41.2365 35.887 41.7415L33.2086 39.0631C33.3472 38.9245 42.6282 29.6434 42.6847 29.587L45.3631 32.2654L43.6539 33.9746C43.3278 34.3007 43.3278 34.8294 43.6539 35.1554C43.9801 35.4814 44.5087 35.4814 44.8348 35.1554L47.9329 32.0572L48.7184 32.8427L42.1003 39.4608C41.7742 39.7869 41.7742 40.3156 42.1003 40.6416C42.4265 40.9677 42.9551 40.9677 43.2812 40.6416L50.4897 33.4331C50.8157 33.107 50.8157 32.5783 50.4897 32.2524L49.1136 30.8764L50.0731 29.9169C50.4594 29.5304 50.4939 28.9231 50.1764 28.4972L52.2697 26.4039C53.2988 25.3747 53.2989 23.7093 52.2699 22.6801ZM45.8029 26.4687C45.814 26.4798 48.6218 29.2877 48.4813 29.1471C47.7612 29.8672 47.2608 30.3676 46.544 31.0844L43.8655 28.406L45.8029 26.4687ZM38.9486 7.06698C38.973 7.06698 38.9928 7.08691 38.9928 7.11129V30.9171L37.2662 32.6437V9.62842C37.2662 9.1673 36.8925 8.79346 36.4313 8.79346H31.148V7.06698H38.9486ZM11.1847 5.10294C11.1847 4.95665 11.3037 4.83764 11.45 4.83764H16.623C17.3185 4.83764 17.9215 4.3252 18.0258 3.64566C18.198 2.51924 19.1893 1.66992 20.3314 1.66992C21.4734 1.66992 22.4646 2.51935 22.6371 3.64554C22.7411 4.3252 23.3441 4.83764 24.0398 4.83764H29.2128C29.3591 4.83764 29.4782 4.95665 29.4782 5.10294V7.97976H16.6741C16.2129 7.97976 15.8392 8.3536 15.8392 8.81472C15.8392 9.27584 16.2129 9.64968 16.6741 9.64968H29.4782V11.3951H11.1848V9.64968H12.7778C13.239 9.64968 13.6127 9.27584 13.6127 8.81472C13.6127 8.3536 13.239 7.97976 12.7778 7.97976H11.1848V5.10294H11.1847ZM32.0278 40.2438L34.7061 42.9223L28.7426 48.8858L26.0642 46.2073L32.0278 40.2438ZM23.7466 49.3351C23.9413 48.6103 24.3246 47.9469 24.8552 47.4165L24.8835 47.3882L27.5618 50.0666L27.5335 50.0949C27.003 50.6255 26.3396 51.0088 25.6151 51.2035L23.0606 51.8897L23.7466 49.3351ZM28.7143 51.2757C29.7661 50.2239 35.4651 44.525 35.5963 44.3938V51.9336H27.9322C28.2104 51.7376 28.4723 51.5177 28.7143 51.2757ZM31.4373 38.4726C31.4367 38.4733 31.4359 38.474 31.4352 38.4748L26.3232 43.5869H16.4838C16.0225 43.5869 15.6488 43.9607 15.6488 44.4218C15.6488 44.883 16.0225 45.2568 16.4838 45.2568H24.6532C23.6129 46.2972 23.635 46.2733 23.5442 46.3701H16.4838C16.0225 46.3701 15.6488 46.7439 15.6488 47.205C15.6488 47.6662 16.0225 48.04 16.4838 48.04H22.4384C22.3153 48.3183 22.2134 48.6064 22.1339 48.9019L21.401 51.6303C21.374 51.7312 21.357 51.8326 21.3499 51.9336H5.06642V49.488C5.06642 49.0269 4.69269 48.6531 4.23146 48.6531C3.77023 48.6531 3.3965 49.0269 3.3965 49.488V52.7685C3.3965 53.2297 3.77023 53.6035 4.23146 53.6035H36.4313C36.8925 53.6035 37.2662 53.2297 37.2662 52.7685V42.7239L38.9928 40.9973V55.2858C38.9928 55.3102 38.9729 55.3301 38.9486 55.3301H1.71423C1.68974 55.3301 1.66992 55.3102 1.66992 55.2858V7.11118C1.66992 7.0868 1.68985 7.06687 1.71423 7.06687H9.51475V8.79346H4.23146C3.77023 8.79346 3.3965 9.1673 3.3965 9.62842V45.5915C3.3965 46.0526 3.77023 46.4264 4.23146 46.4264C4.69269 46.4264 5.06642 46.0526 5.06642 45.5915V10.4634H9.51475V11.8114C9.51475 12.5027 10.0772 13.065 10.7684 13.065H29.8944C30.5857 13.065 31.1481 12.5026 31.1481 11.8113V10.4634H35.5964V34.3135L31.4373 38.4726ZM51.0889 25.223L49.0039 27.3082C48.8587 27.163 49.4337 27.738 47.6418 25.9462L49.7268 23.861C50.1032 23.4847 50.7123 23.4844 51.0888 23.861C51.4653 24.2371 51.4656 24.8465 51.0889 25.223Z"
		fill="#8ED74F" />
	<path
		d="M28.1523 46.7978C28.4784 47.1239 29.0069 47.1239 29.3331 46.7978L32.6183 43.5127C32.9444 43.1866 32.9444 42.6579 32.6183 42.332C32.2922 42.006 31.7636 42.0058 31.4374 42.332L28.1523 45.617C27.8262 45.9431 27.8262 46.4718 28.1523 46.7978Z"
		fill="#8ED74F" />
</svg>