<svg width="46" height="46" viewBox="0 0 46 46" fill="none" xmlns="http://www.w3.org/2000/svg">
<path d="M7.64218 40.8726C7.47517 40.7054 7.24337 40.6094 7.00708 40.6094C6.77079 40.6094 6.53899 40.7054 6.37188 40.8726C6.20478 41.0398 6.10864 41.2715 6.10864 41.5078C6.10864 41.7441 6.20469 41.9759 6.37188 42.1429C6.53899 42.31 6.77079 42.4062 7.00708 42.4062C7.24337 42.4062 7.47517 42.3101 7.64218 42.1429C7.80929 41.9759 7.90552 41.7441 7.90552 41.5078C7.90552 41.2715 7.80938 41.0397 7.64218 40.8726Z" fill="#8ED74F"/>
<path d="M42.1828 16.4361C42.0157 16.2689 41.7848 16.1729 41.5476 16.1729C41.3113 16.1729 41.0795 16.2689 40.9124 16.4361C40.7454 16.6032 40.6492 16.835 40.6492 17.0713C40.6492 17.3076 40.7453 17.5394 40.9124 17.7064C41.0795 17.8735 41.3113 17.9697 41.5476 17.9697C41.7848 17.9697 42.0157 17.8736 42.1828 17.7064C42.3507 17.5394 42.4469 17.3076 42.4469 17.0713C42.4469 16.835 42.3507 16.6032 42.1828 16.4361Z" fill="#8ED74F"/>
<path d="M45.7357 0.263152C45.5671 0.0946953 45.3386 0 45.1002 0L22.9992 0.00116797C22.5031 0.00116797 22.1008 0.403488 22.1008 0.899605V3.46887L13.5846 5.75081C13.1053 5.87929 12.8209 6.3719 12.9494 6.85112L17.3631 23.3233L13.5448 27.1415C13.0589 26.4319 12.2429 25.9653 11.32 25.9653H2.69522C1.20903 25.9653 0 27.1744 0 28.6605V43.3047C0 44.7909 1.20903 46 2.69522 46H11.32C12.5826 46 13.6447 45.1271 13.9358 43.9534L15.0041 44.8849C15.8288 45.6041 16.8853 46.0001 17.9795 46.0001H45.1004C45.5965 46.0001 45.9988 45.5978 45.9988 45.1017V0.898438C45.9986 0.660172 45.9041 0.431609 45.7357 0.263152ZM12.2183 43.3048C12.2183 43.8001 11.8153 44.2032 11.3199 44.2032H2.69513C2.19973 44.2032 1.79669 43.8002 1.79669 43.3048V28.6606C1.79669 28.1652 2.19973 27.7622 2.69513 27.7622H6.1091V38.1117C6.1091 38.6078 6.51142 39.0102 7.00754 39.0102C7.50366 39.0102 7.90598 38.6078 7.90598 38.1117V27.7622H11.32C11.8153 27.7622 12.2184 28.1652 12.2184 28.6606V43.3048H12.2183ZM14.9175 7.25389L22.1008 5.32908V8.65824L21.4987 8.8196C21.2684 8.88132 21.0723 9.03181 20.9532 9.23818C20.834 9.44455 20.8017 9.68974 20.8634 9.91992C21.2087 11.2084 20.4413 12.5374 19.1529 12.8827C18.9224 12.9445 18.726 13.0953 18.6069 13.3021C18.4879 13.5088 18.4558 13.7544 18.5181 13.9848L22.0201 26.9527H20.2169L19.2877 23.3172C19.2581 23.2015 19.2063 23.0949 19.1371 23.0022L14.9175 7.25389ZM22.1008 12.7784V20.3595L20.4622 14.2919C21.1467 13.9384 21.7069 13.4096 22.1008 12.7784ZM35.0082 44.2031H17.9793C17.3194 44.2031 16.6822 43.9643 16.1848 43.5306L14.0152 41.6384V29.2124L17.9376 25.29L18.649 28.0734C18.7507 28.4711 19.1089 28.7493 19.5194 28.7493L37.183 28.7504C37.8766 28.7504 38.4408 29.3146 38.4408 30.0082C38.4408 30.7018 37.8766 31.266 37.183 31.266H28.1321C27.636 31.266 27.2337 31.6683 27.2337 32.1644C27.2337 32.6605 27.636 33.0629 28.1321 33.0629H39.9951C40.6887 33.0629 41.2529 33.6271 41.2529 34.3207C41.2529 35.0143 40.6887 35.5785 39.9951 35.5785H28.1321C27.636 35.5785 27.2337 35.9808 27.2337 36.4769C27.2337 36.973 27.636 37.3754 28.1321 37.3754H38.0727C38.7663 37.3754 39.3305 37.9396 39.3305 38.6332C39.3305 39.3268 38.7663 39.891 38.0727 39.891H28.1321C27.636 39.891 27.2337 40.2933 27.2337 40.7894C27.2337 41.2855 27.636 41.6879 28.1321 41.6879H35.0082C35.7017 41.6879 36.266 42.2521 36.266 42.9457C36.2659 43.6389 35.7017 44.2031 35.0082 44.2031ZM44.202 44.2031H44.2019H37.7907C37.9649 43.8192 38.0627 43.3936 38.0627 42.9453C38.0627 42.497 37.9649 42.0714 37.7907 41.6875H38.0727C39.757 41.6875 41.1273 40.3172 41.1273 38.6329C41.1273 38.1416 41.0101 37.6774 40.8031 37.2658C42.0965 36.9105 43.0496 35.725 43.0496 34.3205C43.0496 33.6391 42.8252 33.0092 42.4467 32.5007V21.1139C42.4467 20.6178 42.0444 20.2155 41.5482 20.2155C41.0521 20.2155 40.6498 20.6178 40.6498 21.1139V31.3374C40.4387 31.2911 40.2197 31.266 39.9949 31.266H39.9655C40.1397 30.8821 40.2375 30.4565 40.2375 30.0082C40.2375 28.3238 38.8672 26.9536 37.1829 26.9536H35.7387C37.2722 26.2959 38.3493 24.7716 38.3493 23C38.3493 20.6291 36.4205 18.7003 34.0496 18.7003C31.6788 18.7003 29.75 20.6291 29.75 23C29.75 24.7716 30.8271 26.2959 32.3605 26.9536H27.4494V9.8705C29.0544 9.52074 30.3208 8.25439 30.6705 6.64934H37.4286C37.7783 8.25439 39.0447 9.52074 40.6497 9.8705V12.6637C40.6497 13.1599 41.052 13.5622 41.5481 13.5622C42.0443 13.5622 42.4466 13.1599 42.4466 12.6637V9.06838C42.4466 8.57226 42.0443 8.16994 41.5481 8.16994C40.2142 8.16994 39.1292 7.08472 39.1292 5.7509C39.1292 5.25478 38.7269 4.85246 38.2308 4.85246H29.8685C29.3723 4.85246 28.97 5.25478 28.97 5.7509C28.97 7.08481 27.8849 8.16994 26.5511 8.16994C26.055 8.16994 25.6526 8.57226 25.6526 9.06838V26.9535H23.8978V1.79786L44.202 1.79688V44.2031ZM34.0498 25.5029C32.6697 25.5029 31.547 24.3801 31.547 23.0001C31.547 21.6201 32.6698 20.4972 34.0498 20.4972C35.4298 20.4972 36.5526 21.62 36.5526 23C36.5526 24.38 35.4299 25.5029 34.0498 25.5029Z" fill="#8ED74F"/>
</svg>
