<svg width="55" height="45" viewBox="0 0 55 45" fill="none" xmlns="http://www.w3.org/2000/svg">
<path d="M53.858 29.8436C52.1101 27.4065 48.8072 26.6518 46.174 28.0878L37.3379 32.9077C36.9734 31.455 35.6572 30.376 34.093 30.376H26.8734C26.4476 29.516 25.5601 27.878 24.6889 27.2344C19.5365 22.5759 10.5806 26.7393 9.15866 27.4471H6.10702V25.3816H0V26.9748H4.51381V39.1889H0V40.7821H6.10702V38.7165H11.2959L31.1617 45.0002L54.3531 30.534L53.858 29.8436ZM30.9419 43.2598L11.6592 37.1606L11.5418 37.1233H6.10702V29.0399H9.54555L9.71889 28.9491C9.81095 28.901 18.982 24.172 23.6489 28.4416L23.6874 28.4768L23.7302 28.5071C24.2796 28.8907 25.182 30.4909 25.6476 31.5048L25.8608 31.9688H34.093C35.0592 31.9688 35.8455 32.7551 35.8455 33.7213C35.8455 34.6879 35.0592 35.4737 34.093 35.4737H23.2599V37.0669H34.093C35.5764 37.0669 36.8366 36.0966 37.2737 34.7576L46.937 29.4866C48.6086 28.5751 50.6492 28.8691 51.9965 30.1268L30.9419 43.2598Z" fill="#8ED74F"/>
<path d="M12.5856 18.5864H15.7293C16.1124 20.9912 18.1999 22.8349 20.7108 22.8349C23.2213 22.8349 25.3088 20.9912 25.692 18.5864H35.9089C36.2921 20.9912 38.3796 22.8349 40.8905 22.8349C43.401 22.8349 45.4885 20.9912 45.8716 18.5864H50.2901V11.4174C50.2901 9.22127 48.5032 7.43441 46.3071 7.43441H40.4596L37.2736 0H20.2161L18.0921 7.43441H16.5686C14.3724 7.43441 12.5856 9.22127 12.5856 11.4174V18.5864ZM20.7108 21.2416C18.8075 21.2416 17.259 19.6932 17.259 17.7898C17.259 15.8864 18.8075 14.338 20.7108 14.338C22.6142 14.338 24.1627 15.8864 24.1627 17.7898C24.1627 19.6932 22.6142 21.2416 20.7108 21.2416ZM40.8905 21.2416C38.9871 21.2416 37.4387 19.6932 37.4387 17.7898C37.4387 15.8864 38.9871 14.338 40.8905 14.338C42.7939 14.338 44.3423 15.8864 44.3423 17.7898C44.3423 19.6932 42.7939 21.2416 40.8905 21.2416ZM26.2866 1.59321H36.2232L38.7267 7.43441H26.2866V1.59321ZM21.4179 1.59321H24.6934V7.43441H19.7488L21.4179 1.59321ZM14.1788 11.4174C14.1788 10.0996 15.2511 9.02762 16.5686 9.02762H46.3071C47.6245 9.02762 48.6969 10.0996 48.6969 11.4174V16.9932H45.8716C45.4889 14.5889 43.401 12.7448 40.8905 12.7448C38.3796 12.7448 36.2921 14.5889 35.9089 16.9932H25.6924C25.3092 14.5889 23.2213 12.7448 20.7108 12.7448C18.2004 12.7448 16.1124 14.5889 15.7293 16.9932H14.1788V11.4174Z" fill="#8ED74F"/>
<path d="M11.8956 3.71729H13.4884V5.31049H11.8956V3.71729Z" fill="#8ED74F"/>
<path d="M5.52271 3.71729H7.11591V5.31049H5.52271V3.71729Z" fill="#8ED74F"/>
<path d="M8.70911 3.71729H10.3023V5.31049H8.70911V3.71729Z" fill="#8ED74F"/>
<path d="M8.65613 7.96582H10.2493V9.55903H8.65613V7.96582Z" fill="#8ED74F"/>
<path d="M5.46973 7.96582H7.06293V9.55903H5.46973V7.96582Z" fill="#8ED74F"/>
<path d="M2.28369 7.96582H3.87648V9.55903H2.28369V7.96582Z" fill="#8ED74F"/>
<path d="M15.0604 28.6916L15.4312 30.2409C17.1077 29.8399 18.5794 29.7433 19.7098 29.9622L20.0121 28.398C18.6524 28.1347 16.9646 28.2359 15.0604 28.6916Z" fill="#8ED74F"/>
<path d="M11.9163 29.7007L12.5117 31.1786C12.9816 30.9895 13.468 30.8137 13.9565 30.6561L13.468 29.1396C12.9434 29.3088 12.4213 29.4975 11.9163 29.7007Z" fill="#8ED74F"/>
<path d="M29.5261 10.6206H33.7745V12.2138H29.5261V10.6206Z" fill="#8ED74F"/>
<path d="M26.3397 10.6206H27.9329V12.2138H26.3397V10.6206Z" fill="#8ED74F"/>
<path d="M40.0939 16.9932H41.6871V18.5864H40.0939V16.9932Z" fill="#8ED74F"/>
<path d="M19.9142 16.9932H21.5074V18.5864H19.9142V16.9932Z" fill="#8ED74F"/>
</svg>
