<svg width="54" height="54" viewBox="0 0 54 54" fill="none" xmlns="http://www.w3.org/2000/svg">
<path d="M32.9472 23.8696L39.978 28.8745C40.2904 29.0969 40.7095 29.0969 41.022 28.8745L48.0528 23.8696C49.5174 22.8322 50.3915 21.1518 50.4 19.357V8.70818C50.4005 8.34984 50.1884 8.02532 49.86 7.88198L40.86 3.99398C40.6325 3.89589 40.3747 3.89589 40.1472 3.99398L31.1472 7.88198C30.8188 8.02532 30.6066 8.34984 30.6072 8.70818V19.357C30.6141 21.1504 31.4854 22.8305 32.9472 23.8696ZM32.4 9.29948L40.5 5.80118L48.6 9.29948V19.357C48.5934 20.5717 48.0004 21.7085 47.0079 22.4089L40.5 27.0367L33.9921 22.4035C33.0008 21.7045 32.4078 20.5699 32.4 19.357V9.29948Z" fill="#8ED74F"/>
<path d="M38.16 21.4191C38.5488 21.7109 39.0991 21.6412 39.4029 21.2616L46.6029 12.2616C46.9135 11.8734 46.8507 11.3069 46.4625 10.9962C46.0743 10.6856 45.5077 10.7484 45.1971 11.1366L38.5371 19.4562L35.64 17.2791C35.3827 17.0862 35.0421 17.0452 34.7464 17.1715C34.4507 17.2978 34.2449 17.5722 34.2064 17.8915C34.168 18.2107 34.3027 18.5262 34.56 18.7191L38.16 21.4191Z" fill="#8ED74F"/>
<path d="M1.8 47.6998H2.7V51.2998C2.7 52.7909 3.90883 53.9998 5.4 53.9998H10.8C12.2912 53.9998 13.5 52.7909 13.5 51.2998V47.6998H35.1V51.2998C35.1 52.7909 36.3088 53.9998 37.8 53.9998H43.2C44.6912 53.9998 45.9 52.7909 45.9 51.2998V47.6998H46.8C47.7941 47.6998 48.6 46.8939 48.6 45.8998V32.3998C48.6033 31.0954 48.0346 29.8552 47.0439 29.0068L50.1399 26.8036C52.5528 25.09 53.9903 22.3173 54 19.3579V6.34297C54.0005 5.98463 53.7884 5.66011 53.46 5.51677L40.86 0.0735745C40.6325 -0.0245248 40.3747 -0.0245248 40.1472 0.0735745L27.54 5.51677C27.2116 5.66011 26.9995 5.98463 27 6.34297V9.89977H13.383C11.4749 9.90042 9.77465 11.1044 9.1404 12.904L3.8394 27.9664C1.63872 28.2902 0.00614445 30.1754 0 32.3998V45.8998C0 46.8939 0.805887 47.6998 1.8 47.6998ZM11.7 51.2998C11.7 51.7968 11.2971 52.1998 10.8 52.1998H5.4C4.90294 52.1998 4.5 51.7968 4.5 51.2998V47.6998H11.7V51.2998ZM8.1 45.8998H6.3V44.0998H8.1V45.8998ZM44.1 51.2998C44.1 51.7968 43.6971 52.1998 43.2 52.1998H37.8C37.3029 52.1998 36.9 51.7968 36.9 51.2998V47.6998H44.1V51.2998ZM42.3 45.8998H40.5V44.0998H42.3V45.8998ZM28.8 6.93427L40.5 1.87987L52.2 6.93427V19.3543C52.1911 21.7317 51.0351 23.9585 49.0959 25.3339L40.5 31.4566L31.9041 25.3366C29.9652 23.9614 28.8092 21.7349 28.8 19.3579V6.93427ZM42.3 33.2998C42.7971 33.2998 43.2 33.7027 43.2 34.1998V35.9998C43.2 36.4968 42.7971 36.8998 42.3 36.8998H36.9C36.4029 36.8998 36 36.4968 36 35.9998C36 34.5086 37.2088 33.2998 38.7 33.2998H42.3ZM27 15.2998V17.0998H20.7V15.2998H27ZM27 13.4998H25.2V11.6998H27V13.4998ZM10.8387 13.4998C11.2199 12.4214 12.2393 11.7003 13.383 11.6998H23.4V13.4998H20.7C19.7059 13.4998 18.9 14.3057 18.9 15.2998V17.0998C18.9 18.0939 19.7059 18.8998 20.7 18.8998H27V19.3579C27.0097 22.3173 28.4472 25.09 30.8601 26.8036L32.4 27.8998H5.7708L10.8387 13.4998ZM1.8 32.3998C1.8 30.9086 3.00883 29.6998 4.5 29.6998H34.929L37.6488 31.6366C35.6305 32.1215 34.2057 33.924 34.2 35.9998C34.2 37.4909 35.4088 38.6998 36.9 38.6998H42.3C43.7912 38.6998 45 37.4909 45 35.9998V34.1998C44.9971 33.088 44.313 32.0917 43.2765 31.6897L45.5049 30.103C46.3121 30.586 46.8044 31.4591 46.8 32.3998L46.8 45.8998H44.1V44.0998C44.1 43.1057 43.2941 42.2998 42.3 42.2998H40.5C39.5059 42.2998 38.7 43.1057 38.7 44.0998V45.8998H9.9V44.0998C9.9 43.1057 9.09411 42.2998 8.1 42.2998H6.3C5.30589 42.2998 4.5 43.1057 4.5 44.0998V45.8998H1.8V32.3998Z" fill="#8ED74F"/>
<path d="M16.2 13.499H14.6601C13.516 13.5003 12.4963 14.221 12.1131 15.299L8.73451 24.9002C8.56949 25.3692 8.81589 25.8831 9.28486 26.0482C9.75383 26.2132 10.2678 25.9668 10.4328 25.4978L13.8114 15.9002C13.9382 15.5401 14.2783 15.2991 14.6601 15.299H16.2C16.6971 15.299 17.1 14.8961 17.1 14.399C17.1 13.902 16.6971 13.499 16.2 13.499Z" fill="#8ED74F"/>
<path d="M6.3001 38.699H11.7001C13.1913 38.699 14.4001 37.4902 14.4001 35.999C14.3971 33.515 12.3841 31.502 9.9001 31.499H6.3001C4.80893 31.499 3.6001 32.7079 3.6001 34.199V35.999C3.6001 37.4902 4.80893 38.699 6.3001 38.699ZM5.4001 34.199C5.4001 33.702 5.80304 33.299 6.3001 33.299H9.9001C11.3913 33.299 12.6001 34.5079 12.6001 35.999C12.6001 36.4961 12.1972 36.899 11.7001 36.899H6.3001C5.80304 36.899 5.4001 36.4961 5.4001 35.999V34.199Z" fill="#8ED74F"/>
<path d="M18.0001 44.0989H30.6001C31.5942 44.0989 32.4001 43.293 32.4001 42.2989V38.6989C32.4001 37.7048 31.5942 36.8989 30.6001 36.8989H18.0001C17.006 36.8989 16.2001 37.7048 16.2001 38.6989V42.2989C16.2001 43.293 17.006 44.0989 18.0001 44.0989ZM18.0001 38.6989H30.6001V42.2989H18.0001V38.6989Z" fill="#8ED74F"/>
</svg>
