<svg width="81" height="26" viewBox="0 0 81 26" fill="none" xmlns="http://www.w3.org/2000/svg">
<path d="M7.524 15.216C6.552 15.216 5.646 15.06 4.806 14.748C3.978 14.424 3.258 13.968 2.646 13.38C2.034 12.792 1.554 12.102 1.206 11.31C0.87 10.518 0.702 9.648 0.702 8.7C0.702 7.752 0.87 6.882 1.206 6.09C1.554 5.298 2.034 4.608 2.646 4.02C3.27 3.432 3.996 2.982 4.824 2.67C5.652 2.346 6.558 2.184 7.542 2.184C8.634 2.184 9.618 2.376 10.494 2.76C11.382 3.132 12.126 3.684 12.726 4.416L10.854 6.144C10.422 5.652 9.942 5.286 9.414 5.046C8.886 4.794 8.31 4.668 7.686 4.668C7.098 4.668 6.558 4.764 6.066 4.956C5.574 5.148 5.148 5.424 4.788 5.784C4.428 6.144 4.146 6.57 3.942 7.062C3.75 7.554 3.654 8.1 3.654 8.7C3.654 9.3 3.75 9.846 3.942 10.338C4.146 10.83 4.428 11.256 4.788 11.616C5.148 11.976 5.574 12.252 6.066 12.444C6.558 12.636 7.098 12.732 7.686 12.732C8.31 12.732 8.886 12.612 9.414 12.372C9.942 12.12 10.422 11.742 10.854 11.238L12.726 12.966C12.126 13.698 11.382 14.256 10.494 14.64C9.618 15.024 8.628 15.216 7.524 15.216ZM20.3844 15V13.11L20.2044 12.696V9.312C20.2044 8.712 20.0184 8.244 19.6464 7.908C19.2864 7.572 18.7284 7.404 17.9724 7.404C17.4564 7.404 16.9464 7.488 16.4424 7.656C15.9504 7.812 15.5304 8.028 15.1824 8.304L14.1744 6.342C14.7024 5.97 15.3384 5.682 16.0824 5.478C16.8264 5.274 17.5824 5.172 18.3504 5.172C19.8264 5.172 20.9724 5.52 21.7884 6.216C22.6044 6.912 23.0124 7.998 23.0124 9.474V15H20.3844ZM17.4324 15.144C16.6764 15.144 16.0284 15.018 15.4884 14.766C14.9484 14.502 14.5344 14.148 14.2464 13.704C13.9584 13.26 13.8144 12.762 13.8144 12.21C13.8144 11.634 13.9524 11.13 14.2284 10.698C14.5164 10.266 14.9664 9.93 15.5784 9.69C16.1904 9.438 16.9884 9.312 17.9724 9.312H20.5464V10.95H18.2784C17.6184 10.95 17.1624 11.058 16.9104 11.274C16.6704 11.49 16.5504 11.76 16.5504 12.084C16.5504 12.444 16.6884 12.732 16.9644 12.948C17.2524 13.152 17.6424 13.254 18.1344 13.254C18.6024 13.254 19.0224 13.146 19.3944 12.93C19.7664 12.702 20.0364 12.372 20.2044 11.94L20.6364 13.236C20.4324 13.86 20.0604 14.334 19.5204 14.658C18.9804 14.982 18.2844 15.144 17.4324 15.144ZM25.5538 15V5.316H28.2358V8.052L27.8578 7.26C28.1458 6.576 28.6078 6.06 29.2438 5.712C29.8798 5.352 30.6538 5.172 31.5658 5.172V7.764C31.4458 7.752 31.3378 7.746 31.2418 7.746C31.1458 7.734 31.0438 7.728 30.9358 7.728C30.1678 7.728 29.5438 7.95 29.0638 8.394C28.5958 8.826 28.3618 9.504 28.3618 10.428V15H25.5538ZM37.5294 15.144C36.3894 15.144 35.5014 14.856 34.8654 14.28C34.2294 13.692 33.9114 12.822 33.9114 11.67V3.174H36.7194V11.634C36.7194 12.042 36.8274 12.36 37.0434 12.588C37.2594 12.804 37.5534 12.912 37.9254 12.912C38.3694 12.912 38.7474 12.792 39.0594 12.552L39.8154 14.532C39.5274 14.736 39.1794 14.892 38.7714 15C38.3754 15.096 37.9614 15.144 37.5294 15.144ZM32.4174 7.692V5.532H39.1314V7.692H32.4174ZM45.7009 15.144C44.6689 15.144 43.7509 14.928 42.9469 14.496C42.1549 14.064 41.5249 13.476 41.0569 12.732C40.6009 11.976 40.3729 11.118 40.3729 10.158C40.3729 9.186 40.6009 8.328 41.0569 7.584C41.5249 6.828 42.1549 6.24 42.9469 5.82C43.7509 5.388 44.6689 5.172 45.7009 5.172C46.7209 5.172 47.6329 5.388 48.4369 5.82C49.2409 6.24 49.8709 6.822 50.3269 7.566C50.7829 8.31 51.0109 9.174 51.0109 10.158C51.0109 11.118 50.7829 11.976 50.3269 12.732C49.8709 13.476 49.2409 14.064 48.4369 14.496C47.6329 14.928 46.7209 15.144 45.7009 15.144ZM45.7009 12.84C46.1689 12.84 46.5889 12.732 46.9609 12.516C47.3329 12.3 47.6269 11.994 47.8429 11.598C48.0589 11.19 48.1669 10.71 48.1669 10.158C48.1669 9.594 48.0589 9.114 47.8429 8.718C47.6269 8.322 47.3329 8.016 46.9609 7.8C46.5889 7.584 46.1689 7.476 45.7009 7.476C45.2329 7.476 44.8129 7.584 44.4409 7.8C44.0689 8.016 43.7689 8.322 43.5409 8.718C43.3249 9.114 43.2169 9.594 43.2169 10.158C43.2169 10.71 43.3249 11.19 43.5409 11.598C43.7689 11.994 44.0689 12.3 44.4409 12.516C44.8129 12.732 45.2329 12.84 45.7009 12.84ZM52.8878 15V5.316H55.6958V15H52.8878ZM54.2918 3.966C53.7758 3.966 53.3558 3.816 53.0318 3.516C52.7078 3.216 52.5458 2.844 52.5458 2.4C52.5458 1.956 52.7078 1.584 53.0318 1.284C53.3558 0.983999 53.7758 0.833999 54.2918 0.833999C54.8078 0.833999 55.2278 0.977999 55.5518 1.266C55.8758 1.542 56.0378 1.902 56.0378 2.346C56.0378 2.814 55.8758 3.204 55.5518 3.516C55.2398 3.816 54.8198 3.966 54.2918 3.966ZM58.3019 15V1.644H61.1099V15H58.3019Z" fill="black"/>
<circle cx="68.2617" cy="14.085" r="9.5" fill="#8ED74F"/>
<path d="M64.218 19.3002C63.965 19.3845 63.7183 19.3719 63.478 19.2622C63.2419 19.1441 63.0785 18.9491 62.9879 18.6771C62.8973 18.4052 62.9132 18.1574 63.0355 17.934C63.162 17.7021 63.3517 17.544 63.6047 17.4597C63.864 17.3733 64.1107 17.386 64.3447 17.4978C64.5766 17.6032 64.7378 17.7919 64.8284 18.0639C64.9191 18.3358 64.9053 18.5899 64.7872 18.826C64.667 19.0558 64.4773 19.2138 64.218 19.3002ZM66.1159 18.5835L64.4153 13.4794L65.8289 13.0084L66.3093 14.4505L65.971 14.0994C66.0027 13.6883 66.1556 13.3352 66.4297 13.0401C66.7017 12.7387 67.078 12.5079 67.5587 12.3477L68.0139 13.7139C67.9485 13.7286 67.8906 13.7444 67.84 13.7613C67.7873 13.7718 67.7325 13.7866 67.6755 13.8055C67.2707 13.9404 66.9808 14.167 66.8058 14.4853C66.635 14.7952 66.6307 15.1936 66.793 15.6806L67.5959 18.0904L66.1159 18.5835ZM72.3806 16.5805C71.9569 16.7217 71.55 16.7659 71.16 16.7132C70.7763 16.6583 70.4369 16.4938 70.1418 16.2197C69.8446 15.9393 69.6085 15.5366 69.4336 15.0116L68.4726 12.1275L69.9526 11.6344L70.8409 14.3003C70.9821 14.7241 71.1749 15.0076 71.4195 15.151C71.6682 15.286 71.957 15.2987 72.2859 15.1891C72.5136 15.1132 72.7002 14.9984 72.8457 14.8445C72.9891 14.6843 73.0776 14.4861 73.1114 14.25C73.1431 14.0076 73.1073 13.7314 73.004 13.4215L72.1631 10.8979L73.6432 10.4047L75.3438 15.5089L73.9397 15.9767L73.4719 14.5726L73.8639 14.8952C73.8112 15.3063 73.6478 15.6594 73.3737 15.9545C73.1038 16.2412 72.7728 16.4498 72.3806 16.5805Z" fill="black"/>
</svg>
