<svg width="130" height="40" viewBox="0 0 130 40" fill="none" xmlns="http://www.w3.org/2000/svg">
<path d="M10.45 20.3C9.1 20.3 7.84167 20.0833 6.675 19.65C5.525 19.2 4.525 18.5667 3.675 17.75C2.825 16.9333 2.15833 15.975 1.675 14.875C1.20833 13.775 0.975 12.5667 0.975 11.25C0.975 9.93333 1.20833 8.725 1.675 7.625C2.15833 6.525 2.825 5.56667 3.675 4.75C4.54167 3.93333 5.55 3.30833 6.7 2.875C7.85 2.425 9.10833 2.2 10.475 2.2C11.9917 2.2 13.3583 2.46667 14.575 3C15.8083 3.51667 16.8417 4.28333 17.675 5.3L15.075 7.7C14.475 7.01667 13.8083 6.50833 13.075 6.175C12.3417 5.825 11.5417 5.65 10.675 5.65C9.85833 5.65 9.10833 5.78333 8.425 6.05C7.74167 6.31667 7.15 6.7 6.65 7.2C6.15 7.7 5.75833 8.29167 5.475 8.975C5.20833 9.65833 5.075 10.4167 5.075 11.25C5.075 12.0833 5.20833 12.8417 5.475 13.525C5.75833 14.2083 6.15 14.8 6.65 15.3C7.15 15.8 7.74167 16.1833 8.425 16.45C9.10833 16.7167 9.85833 16.85 10.675 16.85C11.5417 16.85 12.3417 16.6833 13.075 16.35C13.8083 16 14.475 15.475 15.075 14.775L17.675 17.175C16.8417 18.1917 15.8083 18.9667 14.575 19.5C13.3583 20.0333 11.9833 20.3 10.45 20.3ZM28.3117 20V17.375L28.0617 16.8V12.1C28.0617 11.2667 27.8034 10.6167 27.2867 10.15C26.7867 9.68333 26.0117 9.45 24.9617 9.45C24.2451 9.45 23.5367 9.56667 22.8367 9.8C22.1534 10.0167 21.5701 10.3167 21.0867 10.7L19.6867 7.975C20.4201 7.45833 21.3034 7.05833 22.3367 6.775C23.3701 6.49167 24.4201 6.35 25.4867 6.35C27.5367 6.35 29.1284 6.83333 30.2617 7.8C31.3951 8.76667 31.9617 10.275 31.9617 12.325V20H28.3117ZM24.2117 20.2C23.1617 20.2 22.2617 20.025 21.5117 19.675C20.7617 19.3083 20.1867 18.8167 19.7867 18.2C19.3867 17.5833 19.1867 16.8917 19.1867 16.125C19.1867 15.325 19.3784 14.625 19.7617 14.025C20.1617 13.425 20.7867 12.9583 21.6367 12.625C22.4867 12.275 23.5951 12.1 24.9617 12.1H28.5367V14.375H25.3867C24.4701 14.375 23.8367 14.525 23.4867 14.825C23.1534 15.125 22.9867 15.5 22.9867 15.95C22.9867 16.45 23.1784 16.85 23.5617 17.15C23.9617 17.4333 24.5034 17.575 25.1867 17.575C25.8367 17.575 26.4201 17.425 26.9367 17.125C27.4534 16.8083 27.8284 16.35 28.0617 15.75L28.6617 17.55C28.3784 18.4167 27.8617 19.075 27.1117 19.525C26.3617 19.975 25.3951 20.2 24.2117 20.2ZM35.4914 20V6.55H39.2164V10.35L38.6914 9.25C39.0914 8.3 39.7331 7.58333 40.6164 7.1C41.4997 6.6 42.5747 6.35 43.8414 6.35V9.95C43.6747 9.93333 43.5247 9.925 43.3914 9.925C43.2581 9.90833 43.1164 9.9 42.9664 9.9C41.8997 9.9 41.0331 10.2083 40.3664 10.825C39.7164 11.425 39.3914 12.3667 39.3914 13.65V20H35.4914ZM52.1242 20.2C50.5409 20.2 49.3076 19.8 48.4242 19C47.5409 18.1833 47.0992 16.975 47.0992 15.375V3.575H50.9992V15.325C50.9992 15.8917 51.1492 16.3333 51.4492 16.65C51.7492 16.95 52.1576 17.1 52.6742 17.1C53.2909 17.1 53.8159 16.9333 54.2492 16.6L55.2992 19.35C54.8992 19.6333 54.4159 19.85 53.8492 20C53.2992 20.1333 52.7242 20.2 52.1242 20.2ZM45.0242 9.85V6.85H54.3492V9.85H45.0242ZM63.4734 20.2C62.0401 20.2 60.7651 19.9 59.6484 19.3C58.5484 18.7 57.6734 17.8833 57.0234 16.85C56.3901 15.8 56.0734 14.6083 56.0734 13.275C56.0734 11.925 56.3901 10.7333 57.0234 9.7C57.6734 8.65 58.5484 7.83333 59.6484 7.25C60.7651 6.65 62.0401 6.35 63.4734 6.35C64.8901 6.35 66.1568 6.65 67.2734 7.25C68.3901 7.83333 69.2651 8.64167 69.8984 9.675C70.5318 10.7083 70.8484 11.9083 70.8484 13.275C70.8484 14.6083 70.5318 15.8 69.8984 16.85C69.2651 17.8833 68.3901 18.7 67.2734 19.3C66.1568 19.9 64.8901 20.2 63.4734 20.2ZM63.4734 17C64.1234 17 64.7068 16.85 65.2234 16.55C65.7401 16.25 66.1484 15.825 66.4484 15.275C66.7484 14.7083 66.8984 14.0417 66.8984 13.275C66.8984 12.4917 66.7484 11.825 66.4484 11.275C66.1484 10.725 65.7401 10.3 65.2234 10C64.7068 9.7 64.1234 9.55 63.4734 9.55C62.8234 9.55 62.2401 9.7 61.7234 10C61.2068 10.3 60.7901 10.725 60.4734 11.275C60.1734 11.825 60.0234 12.4917 60.0234 13.275C60.0234 14.0417 60.1734 14.7083 60.4734 15.275C60.7901 15.825 61.2068 16.25 61.7234 16.55C62.2401 16.85 62.8234 17 63.4734 17ZM73.4553 20V6.55H77.3553V20H73.4553ZM75.4053 4.675C74.6886 4.675 74.1053 4.46667 73.6553 4.05C73.2053 3.63333 72.9803 3.11667 72.9803 2.5C72.9803 1.88333 73.2053 1.36667 73.6553 0.949999C74.1053 0.533332 74.6886 0.324998 75.4053 0.324998C76.1219 0.324998 76.7053 0.524999 77.1553 0.925C77.6053 1.30833 77.8303 1.80833 77.8303 2.425C77.8303 3.075 77.6053 3.61667 77.1553 4.05C76.7219 4.46667 76.1386 4.675 75.4053 4.675ZM80.9748 20V1.45H84.8748V20H80.9748Z" fill="black"/>
<circle cx="93.5" cy="23.7471" r="13.5" fill="#8ED74F"/>
<path d="M87.2991 30.6767C86.9196 30.8032 86.5496 30.7842 86.1892 30.6197C85.835 30.4425 85.59 30.15 85.454 29.742C85.3181 29.3341 85.3419 28.9625 85.5253 28.6274C85.7151 28.2795 85.9997 28.0424 86.3792 27.916C86.7682 27.7863 87.1382 27.8054 87.4892 27.973C87.837 28.1312 88.0789 28.4142 88.2148 28.8222C88.3508 29.2301 88.3301 29.6112 88.153 29.9653C87.9727 30.31 87.6881 30.5471 87.2991 30.6767ZM90.146 29.6017L87.595 21.9455L89.7154 21.239L90.4362 23.4021L89.9287 22.8755C89.9762 22.2588 90.2055 21.7292 90.6167 21.2865C91.0247 20.8344 91.5892 20.4882 92.3102 20.2479L92.993 22.2972C92.895 22.3193 92.808 22.343 92.7321 22.3683C92.6531 22.3841 92.5708 22.4062 92.4854 22.4347C91.8783 22.637 91.4434 22.9769 91.1809 23.4543C90.9247 23.9192 90.9183 24.5168 91.1617 25.2473L92.3661 28.862L90.146 29.6017ZM99.5431 26.5971C98.9074 26.8089 98.2971 26.8752 97.7121 26.7961C97.1366 26.7138 96.6275 26.4671 96.1848 26.056C95.739 25.6353 95.3849 25.0313 95.1225 24.2438L93.6811 19.9177L95.9011 19.178L97.2335 23.1768C97.4453 23.8125 97.7346 24.2378 98.1014 24.4529C98.4745 24.6554 98.9077 24.6744 99.401 24.51C99.7426 24.3962 100.022 24.2239 100.241 23.9931C100.456 23.7528 100.589 23.4555 100.639 23.1014C100.687 22.7377 100.633 22.3234 100.478 21.8586L99.2169 18.0732L101.437 17.3335L103.988 24.9897L101.882 25.6914L101.18 23.5853L101.768 24.0692C101.689 24.6858 101.444 25.2155 101.033 25.6581C100.628 26.0881 100.131 26.4011 99.5431 26.5971Z" fill="black"/>
</svg>
